<?xml version="1.0" encoding="iso-8859-1"?>
<!-- Generator: Adobe Illustrator 19.0.0, SVG Export Plug-In . SVG Version: 6.00 Build 0)  -->
<svg version="1.1" id="Capa_1" xmlns="http://www.w3.org/2000/svg" xmlns:xlink="http://www.w3.org/1999/xlink" x="0px" y="0px"
	 viewBox="0 0 512 512" style="enable-background:new 0 0 512 512;" xml:space="preserve">
<path style="fill:#DDDDDD;" d="M176.936,446.028c-2.087,17.716-15.904,22.112-19.481,25.584c49.226,0,98.712,0,147.754,0
	c-3.258-3.162-17.405-7.953-19.482-25.585l-4.75-41.383h-99.291L176.936,446.028z"/>
<path style="fill:#CECCCA;" d="M214.441,446.028l4.751-41.384h-37.505l-4.75,41.384c-2.087,17.716-15.904,22.112-19.481,25.584
	c12.489,0,24.994,0,37.506,0l8.478-5.922C209.541,461.427,213.554,453.566,214.441,446.028z"/>
<path style="fill:#EFEFEF;" d="M321.031,470.709H141.634c-8.232,0-14.968,6.735-14.968,14.968l0,0
	c0,8.232,6.735,14.968,14.968,14.968H321.03c8.232,0,14.968-6.735,14.968-14.968l0,0
	C335.998,477.444,329.263,470.709,321.031,470.709z"/>
<path style="fill:#DDDDDD;" d="M182.408,485.676c0-8.232,6.735-14.968,14.968-14.968h-55.742c-8.232,0-14.968,6.735-14.968,14.968
	c0,8.232,6.736,14.968,14.968,14.968h55.742C189.144,500.644,182.408,493.909,182.408,485.676z"/>
<path style="fill:#EFEFEF;" d="M339.613,255.001c0-14.842,12.032-26.873,26.873-26.873h96.998V41.316
	c0-16.479-13.483-29.962-29.962-29.962H29.962C13.483,11.354,0,24.837,0,41.316v334.399c0,16.479,13.483,29.962,29.962,29.962
	h309.651V255.001z"/>
<path style="fill:#DDDDDD;" d="M55.742,375.715V41.316c0-16.479,13.483-29.962,29.962-29.962H29.962
	C13.483,11.354,0,24.837,0,41.316v334.399c0,16.479,13.483,29.962,29.962,29.962h55.742
	C69.225,405.676,55.742,392.194,55.742,375.715z"/>
<path style="fill:#647892;" d="M339.613,255.001c0-14.842,12.032-26.873,26.873-26.873h96.998V41.316
	c0-16.479-13.483-29.962-29.962-29.962H29.962C13.483,11.354,0,24.837,0,41.316v303.458h339.613V255.001z"/>
<path style="fill:#4D6682;" d="M55.742,41.316c0-16.479,13.483-29.962,29.962-29.962H29.962C13.52,11.354,0,24.833,0,41.316v303.458
	h55.742V41.316z"/>
<path style="fill:#A4D9F4;" d="M29.935,97.031v211.661c0,2.824,2.289,5.113,5.113,5.113H338.58v-58.804
	c0-14.842,12.032-26.873,26.874-26.873h67.062V97.031H29.935z"/>
<path style="fill:#77CFF2;" d="M55.742,97.031H29.935v211.661c0,2.824,2.289,5.113,5.113,5.113h20.693L55.742,97.031L55.742,97.031z
	"/>
<path style="fill:#DDDDDD;" d="M229.822,382.636c-3.852-0.799-6.234-4.112-6.234-7.598c0-6.808,8.299-10.367,13.223-5.471
	c1.84,1.895,2.604,4.381,2.116,6.989C238.05,380.753,234.098,383.436,229.822,382.636z"/>
<path style="fill:#FAC149;" d="M161.73,161.031l17.074,72.258h98.657c3.007,0,5.626-2.053,6.345-4.973l15.538-63.164
	c0.463-2.117-1.15-4.121-3.317-4.121C288.547,161.031,170.37,161.031,161.73,161.031z"/>
<g>
	<path style="fill:#EFEFEF;" d="M279.226,264.773h-87.71c-7.373,0-13.725-5.007-15.448-12.176l-26.945-113.759h-18.027
		c-4.276,0-7.742-3.466-7.742-7.742c0-4.276,3.466-7.742,7.742-7.742h21.033c5.453,0,10.13,3.708,11.374,9.017l27.625,116.633
		c0.038,0.158,0.2,0.285,0.387,0.285h87.71c4.276,0,7.742,3.466,7.742,7.742C286.968,261.308,283.502,264.773,279.226,264.773z
		 M152.13,138.838h0.01H152.13z M148.433,135.921c0.001,0.006,0.003,0.011,0.004,0.017L148.433,135.921z"/>
	<path style="fill:#EFEFEF;" d="M427.403,41.289H35.048c-2.824,0-5.113,2.289-5.113,5.113v53.726h402.581V46.402
		C432.516,43.578,430.227,41.289,427.403,41.289z"/>
</g>
<path style="fill:#DDDDDD;" d="M55.742,41.316c0-0.009,0.001-0.018,0.001-0.026H35.048c-2.824,0-5.113,2.289-5.113,5.113v53.726
	h25.806L55.742,41.316L55.742,41.316z"/>
<path style="fill:#FC5B6F;" d="M70.968,79.637c-4.26,0-7.742-3.467-7.742-7.742c0-3.68,2.553-6.822,6.235-7.587
	c4.689-0.946,9.249,2.648,9.249,7.587C78.71,76.164,75.251,79.637,70.968,79.637z"/>
<path style="fill:#FAC149;" d="M100.212,79.637c-4.246,0-7.742-3.429-7.742-7.742c0-3.611,2.498-6.813,6.224-7.587
	c4.844-0.951,9.26,2.782,9.26,7.587C107.954,76.105,104.547,79.637,100.212,79.637z"/>
<path style="fill:#23B658;" d="M129.466,79.637c-4.369,0-7.742-3.56-7.742-7.742c0-3.584,2.504-6.813,6.235-7.587
	c4.789-0.95,9.249,2.728,9.249,7.587C137.208,76.155,133.761,79.637,129.466,79.637z"/>
<path style="fill:#DDDDDD;" d="M389.161,79.999h-224c-4.276,0-7.742-3.466-7.742-7.742c0-4.276,3.466-7.742,7.742-7.742h224
	c4.276,0,7.742,3.466,7.742,7.742S393.437,79.999,389.161,79.999z"/>
<path style="fill:#EFEFEF;" d="M485.126,225.031H362.357c-14.842,0-26.874,12.032-26.874,26.874v221.866
	c0,14.842,12.032,26.874,26.874,26.874h122.769c14.842,0,26.874-12.032,26.874-26.874V251.905
	C512,237.063,499.968,225.031,485.126,225.031z"/>
<path style="fill:#DDDDDD;" d="M362.409,473.77V251.905c0-14.842,12.031-26.874,26.874-26.874h-26.925
	c-14.842,0-26.874,12.032-26.874,26.874v221.866c0,14.842,12.032,26.874,26.874,26.874h26.925
	C374.44,500.644,362.409,488.612,362.409,473.77z"/>
<path style="fill:#3997EE;" d="M486.194,470.667c0,1.733-1.405,3.138-3.138,3.138H365.461c-1.733,0-3.138-1.405-3.138-3.138v-215.66
	c0-1.733,1.405-3.138,3.138-3.138h23.964c2.135,0,3.866,1.731,3.866,3.866v10.085c0,4.267,3.459,7.727,7.727,7.727H450
	c4.026,0,7.29-3.264,7.29-7.29V255.77c0-2.154,1.746-3.9,3.9-3.9h21.865c1.733,0,3.138,1.405,3.138,3.138v215.659H486.194z"/>
<path style="fill:#1E88D8;" d="M388.645,470.667v-215.66c0-1.333,0.835-2.465,2.008-2.92c-0.388-0.131-0.797-0.218-1.229-0.218
	H365.46c-1.733,0-3.138,1.405-3.138,3.138v215.66c0,1.733,1.405,3.138,3.138,3.138h26.322
	C390.05,473.805,388.645,472.4,388.645,470.667z"/>
<path style="fill:#DDDDDD;" d="M430.452,257.547h-11.355c-4.276,0-7.742-3.466-7.742-7.742s3.466-7.742,7.742-7.742h11.355
	c4.276,0,7.742,3.466,7.742,7.742S434.727,257.547,430.452,257.547z"/>
<path style="fill:#48AEF9;" d="M425.208,452.231c-4.184,0-7.742-3.432-7.742-7.742c0-3.529,2.416-6.804,6.235-7.597
	c4.759-0.944,9.249,2.7,9.249,7.597C432.95,448.693,429.538,452.231,425.208,452.231z"/>
<path style="fill:#23B658;" d="M454.194,335.999h-57.806c-4.276,0-7.742,3.466-7.742,7.742s3.466,7.742,7.742,7.742h57.806
	c4.276,0,7.742-3.466,7.742-7.742S458.469,335.999,454.194,335.999z"/>
<path style="fill:#A4D9F4;" d="M454.194,300.902h-57.806c-4.276,0-7.742,3.466-7.742,7.742s3.466,7.742,7.742,7.742h57.806
	c4.276,0,7.742-3.466,7.742-7.742C461.935,304.368,458.469,300.902,454.194,300.902z"/>
<path style="fill:#FC5B6F;" d="M454.194,406.193h-57.806c-4.276,0-7.742,3.466-7.742,7.742s3.466,7.742,7.742,7.742h57.806
	c4.276,0,7.742-3.466,7.742-7.742C461.935,409.658,458.469,406.193,454.194,406.193z"/>
<path style="fill:#FAC149;" d="M454.194,371.096h-57.806c-4.276,0-7.742,3.466-7.742,7.742s3.466,7.742,7.742,7.742h57.806
	c4.276,0,7.742-3.466,7.742-7.742C461.935,374.562,458.469,371.096,454.194,371.096z"/>
<g>
	<circle style="fill:#647892;" cx="197.16" cy="270.449" r="13.419"/>
	<circle style="fill:#647892;" cx="273.55" cy="270.449" r="13.419"/>
</g>
<g>
</g>
<g>
</g>
<g>
</g>
<g>
</g>
<g>
</g>
<g>
</g>
<g>
</g>
<g>
</g>
<g>
</g>
<g>
</g>
<g>
</g>
<g>
</g>
<g>
</g>
<g>
</g>
<g>
</g>
</svg>
